<svg xmlns="http://www.w3.org/2000/svg" viewBox="0 0 240 234"><defs><style>.cls-1{fill:#00005b;}.cls-2{fill:#99f;}</style></defs><title>Asset 133</title><g id="Layer_2" data-name="Layer 2"><g id="Surfaces"><g id="Video_Audio_Surface" data-name="Video/Audio Surface"><g id="Outline_no_shadow" data-name="Outline no shadow"><rect class="cls-1" width="240" height="234" rx="42.5"/></g></g></g><g id="Outlined_Mnemonics_Logos" data-name="Outlined Mnemonics &amp; Logos"><g id="Pl"><path class="cls-2" d="M61.57471,164.09521V61.21631c0-.74976.32227-1.127.96631-1.127q2.573,0,6.11767-.08057,3.5398-.07911,7.64747-.16089,4.10595-.07947,8.69433-.16113,4.5879-.07911,9.09619-.08057,12.23364,0,20.60791,3.05908a35.755,35.755,0,0,1,13.44385,8.21094,31.496,31.496,0,0,1,7.3252,11.35059A37.64894,37.64894,0,0,1,137.728,95.18726q0,12.88256-5.957,21.252a33.65844,33.65844,0,0,1-16.1001,12.15552,64.0567,64.0567,0,0,1-22.54,3.78369q-3.54345,0-4.99121-.08057-1.44873-.07947-4.34668-.08056v31.717a1.28093,1.28093,0,0,1-1.44922,1.449H62.70166C61.94971,165.3833,61.57471,164.95557,61.57471,164.09521ZM83.793,79.40918v33.32715q2.09034.16223,3.86377.16089h5.313a37.98372,37.98372,0,0,0,11.51172-1.60987,17.35829,17.35829,0,0,0,8.21094-5.313q3.13916-3.70167,3.13964-10.304a16.2828,16.2828,0,0,0-2.335-8.85522,15.014,15.014,0,0,0-7.00341-5.71534A29.83951,29.83951,0,0,0,94.74073,79.0874q-3.86427,0-6.84229.08032Q84.91749,79.25085,83.793,79.40918Z"/><path class="cls-2" d="M146.74429,144.61426v-92.092q0-1.2865,1.44922-1.28784h19.481q1.44873,0,1.44922,1.28784v90.16015q0,3.38087,1.20752,4.82984,1.207,1.44909,4.10547,1.449a9.375,9.375,0,0,0,1.44873-.08032q.48341-.07947,1.44922-.24146a1.14117,1.14117,0,0,1,.48291.08033c.10547.05542.16113.40258.16113,1.04663V163.6123a6.57438,6.57438,0,0,1-.08056,1.28809q-.08351.32447-.72461.6438a24.64073,24.64073,0,0,1-4.02491,1.04663,36.69983,36.69983,0,0,1-6.11816.40259,27.58419,27.58419,0,0,1-10.38428-1.85156,14.23141,14.23141,0,0,1-7.24511-6.762Q146.74453,153.47046,146.74429,144.61426Z"/></g></g></g></svg>