<svg width="48" height="48" viewBox="0 0 48 48" fill="none" xmlns="http://www.w3.org/2000/svg">
<g clip-path="url(#clip0_1300_16254)">
<path d="M34.2922 26.0202C41.3517 19.6287 48 13.6466 48 8.50606C48 4.29812 44.6873 1 40.4607 1C38.0847 1 35.7772 2.11454 34.2922 3.84321C32.7844 2.11454 30.4998 1 28.1238 1C23.8972 1 20.5845 4.29812 20.5845 8.50606C20.5845 13.6466 27.2327 19.6287 34.2922 26.0202ZM28.1238 5.54913C29.129 5.54913 30.1571 6.02679 30.8196 6.80014L34.2922 10.8716L37.7649 6.80014C38.4274 6.02679 39.4555 5.54913 40.4607 5.54913C42.1514 5.54913 43.4307 6.82289 43.4307 8.50606C43.4307 11.0536 38.7701 15.7164 34.2922 19.8561C29.8144 15.7164 25.1537 11.0308 25.1537 8.50606C25.1537 6.82289 26.4331 5.54913 28.1238 5.54913Z" fill="#F29900"/>
<path d="M41.1233 32.8439H36.554C36.554 30.1144 34.8405 27.6579 32.2818 26.7026L18.2085 21.4711H0V46.4913H13.7078V43.2159L29.7001 47.6286L47.9771 41.9422V39.6676C47.9771 35.8918 44.9158 32.8439 41.1233 32.8439ZM4.56925 41.9422V26.0202H9.1385V41.9422H4.56925ZM29.6316 42.8747L13.7078 38.4848V26.0202H17.386L30.6825 30.956C31.4593 31.2517 31.9848 32.0023 31.9848 32.8439C31.9848 32.8439 27.4384 32.7302 26.7301 32.5027L21.2927 30.7058L19.8534 35.0275L25.2908 36.8244C26.456 37.2111 27.6668 37.4158 28.9005 37.4158H41.1233C42.0143 37.4158 42.8139 37.9389 43.1794 38.6895L29.6316 42.8747Z" fill="#F29900"/>
</g>
<defs>
<clipPath id="clip0_1300_16254">
<rect width="48" height="48" fill="white"/>
</clipPath>
</defs>
</svg>
