<svg width="48" height="48" viewBox="0 0 48 48" fill="none" xmlns="http://www.w3.org/2000/svg">
<g clip-path="url(#clip0_1300_16252)">
<path d="M27 24L31.265 28.875L37 32.5L38 24.0325L37 15.7125L31.155 18.9325L27 24Z" fill="#188038"/>
<path d="M2.25 31.75V39C2.25 40.6575 3.5925 42 5.25 42H12.5L14 36.52L12.5 31.75L7.525 30.25L2.25 31.75Z" fill="#1967D2"/>
<path d="M12.5 6L2.25 16.25L7.525 17.75L12.5 16.25L13.975 11.5425L12.5 6Z" fill="#EA4335"/>
<path d="M12.5 16.25H2.25V31.75H12.5V16.25Z" fill="#4285F4"/>
<path d="M43.5475 10.34L37 15.7125V32.5L43.575 38.0925C44.56 38.8625 46 38.16 46 36.91V11.5C46 10.2325 44.5275 9.53749 43.5475 10.34Z" fill="#34A853"/>
<path d="M27 24V31.75H12.5V42H34C35.6575 42 37 40.6575 37 39V32.5L27 24Z" fill="#34A853"/>
<path d="M34 6H12.5V16.25H27V24L37 15.7125V9C37 7.3425 35.6575 6 34 6Z" fill="#FBBC04"/>
</g>
<defs>
<clipPath id="clip0_1300_16252">
<rect width="48" height="48" fill="white"/>
</clipPath>
</defs>
</svg>
