<svg width="48" height="48" viewBox="0 0 48 48" fill="none" xmlns="http://www.w3.org/2000/svg">
<path d="M35.5795 12.421L25.1584 11.2631L12.4216 12.421L11.2637 24L12.4216 35.5789L24.0005 37.0263L35.5795 35.5789L36.7374 23.7105L35.5795 12.421Z" fill="white"/>
<path d="M17.1707 30.3858C16.3052 29.801 15.706 28.9471 15.3789 27.8181L17.3879 26.9903C17.5702 27.685 17.8886 28.2234 18.3431 28.6055C18.7947 28.9876 19.3447 29.1758 19.9873 29.1758C20.6444 29.1758 21.2089 28.976 21.6807 28.5766C22.1526 28.1771 22.39 27.6676 22.39 27.051C22.39 26.42 22.141 25.9047 21.6431 25.5052C21.1452 25.1058 20.52 24.906 19.7731 24.906H18.6123V22.9174H19.6544C20.2971 22.9174 20.8384 22.7437 21.2784 22.3963C21.7184 22.0489 21.9384 21.5742 21.9384 20.9692C21.9384 20.4308 21.7415 20.0024 21.3479 19.681C20.9542 19.3597 20.4563 19.1976 19.8513 19.1976C19.2607 19.1976 18.7918 19.3539 18.4444 19.6695C18.0971 19.985 17.8452 20.3729 17.686 20.8303L15.6973 20.0024C15.9607 19.2555 16.4442 18.5955 17.1534 18.0253C17.8626 17.455 18.7686 17.1684 19.8686 17.1684C20.6821 17.1684 21.4144 17.3247 22.0629 17.6403C22.7113 17.9558 23.2207 18.3929 23.5884 18.9487C23.956 19.5074 24.1384 20.1326 24.1384 20.8274C24.1384 21.5366 23.9676 22.1358 23.626 22.6279C23.2844 23.12 22.8647 23.4963 22.3668 23.7597V23.8784C23.0239 24.1534 23.5594 24.5731 23.9821 25.1376C24.4018 25.7021 24.6131 26.3766 24.6131 27.1639C24.6131 27.9513 24.4134 28.6547 24.0139 29.2713C23.6144 29.8879 23.0615 30.3742 22.361 30.7274C21.6576 31.0805 20.8673 31.26 19.9902 31.26C18.9742 31.2629 18.0363 30.9705 17.1707 30.3858Z" fill="#2684FC"/>
<path d="M29.4983 20.4163L27.3041 22.0113L26.2012 20.3382L30.1583 17.484H31.6751V30.9474H29.4983V20.4163Z" fill="#2684FC"/>
<path d="M35.5795 46L46.0005 35.5789V33.2631H35.5795V35.5789H33.2637V46H35.5795Z" fill="#E94235"/>
<path d="M35.5791 35.5789H10.1055V46H35.5791V35.5789Z" fill="#00AC47"/>
<path d="M5.47368 2C3.55447 2 2 3.55447 2 5.47368V37.8947H12.4211V12.4211H37.8947V2H5.47368Z" fill="#2684FC"/>
<path d="M2 35.5789V42.5263C2 44.4455 3.55447 46 5.47368 46H12.4211V35.5789H2Z" fill="#00832D"/>
<path d="M45.9992 10.1052H35.5781V35.5789H45.9992V10.1052Z" fill="#FFBA00"/>
<path d="M45.9992 12.4211V5.47368C45.9992 3.55447 44.4447 2 42.5255 2H35.5781V12.4211H45.9992Z" fill="#0066DA"/>
</svg>
