<svg width="48" height="48" viewBox="0 0 48 48" fill="none" xmlns="http://www.w3.org/2000/svg">
<g clip-path="url(#clip0_1300_16253)">
<path d="M44.3951 18.884C43.1964 17.6377 41.7639 16.6495 40.1828 15.9781C38.6016 15.3067 36.9041 14.9657 35.191 14.9755H34.8744C33.4372 12.4938 31.2914 10.5169 28.723 9.30808C26.1546 8.0993 23.2855 7.71605 20.4978 8.20938C17.7101 8.70271 15.1362 10.0492 13.119 12.0695C11.1017 14.0898 9.73683 16.688 9.20616 19.518C6.76086 19.8534 4.50637 21.0447 2.82936 22.8877C1.15234 24.7306 0.157308 27.1102 0.0149063 29.6185C-0.0615074 31.0752 0.156452 32.5324 0.655299 33.9C1.15415 35.2675 1.92327 36.5163 2.91509 37.569C3.9028 38.623 5.08968 39.4626 6.40433 40.0374C7.71898 40.6122 9.13423 40.9103 10.5649 40.9138H20.0958C21.6906 40.9119 23.2195 40.266 24.3472 39.1177C25.4748 37.9695 26.1092 36.4127 26.111 34.7888V26.9088L30.6399 31.5201L34.042 28.055L23.8869 17.7145L13.7316 28.055L17.1349 31.5201L21.2997 27.2795V34.7888C21.2992 35.1136 21.1723 35.4249 20.9468 35.6546C20.7213 35.8842 20.4155 36.0135 20.0965 36.0139H10.5656C9.78613 36.0126 9.015 35.8503 8.29893 35.5367C7.58285 35.2231 6.93675 34.7647 6.39975 34.1894C5.86275 33.6141 5.44602 32.9337 5.17482 32.1896C4.90361 31.4455 4.78356 30.653 4.82195 29.8603C4.94415 28.3356 5.62895 26.9146 6.73854 25.8833C7.84813 24.852 9.30016 24.2869 10.8024 24.3017H13.5465L13.8098 21.3302C13.9904 19.3223 14.8086 17.4289 16.1406 15.937C17.4726 14.445 19.2458 13.4356 21.1917 13.0618C23.1376 12.6879 25.1501 12.9699 26.9244 13.8651C28.6988 14.7602 30.1383 16.2198 31.0251 18.0227L31.9448 19.8845L35.1956 19.8754C36.2678 19.8681 37.3305 20.0803 38.3206 20.4993C39.3108 20.9183 40.2081 21.5357 40.9594 22.3147C41.6877 23.0677 42.26 23.9621 42.6424 24.9447C43.0247 25.9273 43.2093 26.9781 43.1851 28.0347C43.1112 30.1848 42.2173 32.2208 40.6931 33.7107C39.169 35.2006 37.1346 36.0269 35.0219 36.0144H28.7207V40.9143H35.0219C38.393 40.9208 41.6339 39.5891 44.0565 37.202C46.4791 34.8149 47.8925 31.5603 47.9967 28.1292C48.0353 26.4211 47.7364 24.7225 47.1177 23.1343C46.499 21.5461 45.5731 20.1007 44.3951 18.884Z" fill="#1967D2"/>
</g>
<defs>
<clipPath id="clip0_1300_16253">
<rect width="48" height="48" fill="white"/>
</clipPath>
</defs>
</svg>
