<svg width="48" height="48" viewBox="0 0 48 48" fill="none" xmlns="http://www.w3.org/2000/svg">
<g clip-path="url(#clip0_1300_16227)">
<path d="M32.082 30.5L33.9795 37.0425L38.952 42.3975C39.6245 42.01 40.197 41.4475 40.5995 40.75L45.2195 32.75C45.622 32.055 45.822 31.2775 45.822 30.5L38.727 29.125L32.082 30.5Z" fill="#EA4335"/>
<path d="M30.8703 4.6025C30.1978 4.215 29.4253 4 28.6203 4H19.3828C18.5828 4 17.8028 4.22 17.1328 4.6025L19.1228 11.305L23.9828 16.465L24.0003 16.5L28.8953 11.2775L30.8703 4.6025Z" fill="#188038"/>
<path d="M15.9172 30.5L8.83469 28.875L2.17969 30.5C2.17969 31.275 2.37969 32.05 2.77969 32.7475L7.39969 40.75C7.80219 41.445 8.37469 42.0075 9.04719 42.3975L13.9447 37.3525L15.9172 30.5Z" fill="#1967D2"/>
<path d="M38.8675 17.25L32.5175 6.24999C32.115 5.55249 31.5425 4.98999 30.87 4.60249L24 16.5L32.0825 30.5H45.82C45.82 29.7225 45.62 28.9475 45.2175 28.25L38.8675 17.25Z" fill="#FBBC04"/>
<path d="M32.0819 30.5H15.9169L9.04688 42.3975C9.71938 42.785 10.4919 43 11.2969 43H36.6994C37.5044 43 38.2769 42.785 38.9494 42.3975L32.0819 30.5Z" fill="#4285F4"/>
<path d="M23.9997 16.5L17.1322 4.60249C16.4597 4.98999 15.8897 5.54999 15.4872 6.24499L2.77969 28.2575C2.37969 28.9525 2.17969 29.7275 2.17969 30.5H15.9172L23.9997 16.5Z" fill="#34A853"/>
</g>
<defs>
<clipPath id="clip0_1300_16227">
<rect width="48" height="48" fill="white"/>
</clipPath>
</defs>
</svg>
