<svg width="48" height="48" viewBox="0 0 48 48" fill="none" xmlns="http://www.w3.org/2000/svg">
<g clip-path="url(#clip0_1300_16228)">
<path d="M13 12C19.075 12 24 16.925 24 23V24H3C2.4475 24 2 23.5525 2 23C2 16.925 6.925 12 13 12Z" fill="#FBBC04"/>
<path d="M36 13C36 19.075 31.075 24 25 24H24V3C24 2.4475 24.4475 2 25 2C31.075 2 36 6.925 36 13Z" fill="#EA4335"/>
<path d="M35 36C28.925 36 24 31.075 24 25V24H45C45.5525 24 46 24.4475 46 25C46 31.075 41.075 36 35 36Z" fill="#4285F4"/>
<path d="M12 35C12 28.925 16.925 24 23 24H24V45C24 45.5525 23.5525 46 23 46C16.925 46 12 41.075 12 35Z" fill="#34A853"/>
</g>
<defs>
<clipPath id="clip0_1300_16228">
<rect width="48" height="48" fill="white"/>
</clipPath>
</defs>
</svg>
