<svg width="72" height="72" viewBox="0 0 72 72" fill="none" xmlns="http://www.w3.org/2000/svg">
<path fill-rule="evenodd" clip-rule="evenodd" d="M24.9304 7.73242H59.3264C62.4794 7.73242 65.0591 10.3121 65.0591 13.4651V47.8611C65.0591 51.014 62.4794 53.5938 59.3264 53.5938H24.9304C21.7775 53.5938 19.1978 51.014 19.1978 47.8611V13.4651C19.1978 10.3121 21.7775 7.73242 24.9304 7.73242ZM7.73242 19.1978H13.4651V59.3264H53.5938V65.0591H13.4651C10.3121 65.0591 7.73242 62.4794 7.73242 59.3264V19.1978ZM59.3264 47.8611H24.9304V13.4651H59.3264V47.8611ZM44.9948 42.1284H39.2621V33.5294H30.6631V27.7968H39.2621V19.1978H44.9948V27.7968H53.5938V33.5294H44.9948V42.1284Z" fill="#EA8600"/>
</svg>
