<svg width="336" height="372" viewBox="0 0 336 372" fill="none" xmlns="http://www.w3.org/2000/svg">
<g clip-path="url(#clip0_12_3929)">
<path d="M6.67429e-05 112.947V259.053C-0.00368042 266.027 1.83766 272.878 5.33721 278.911C8.83677 284.944 13.87 289.944 19.9261 293.403L148.38 366.789C154.355 370.204 161.118 372 168 372C174.882 372 181.645 370.204 187.62 366.789L316.08 293.403C322.134 289.942 327.165 284.942 330.664 278.909C334.162 272.877 336.003 266.026 336 259.053V112.947C336.001 105.975 334.16 99.1258 330.661 93.0945C327.163 87.0633 322.133 82.0639 316.08 78.6031L187.62 5.21118C181.645 1.79626 174.882 0 168 0C161.118 0 154.355 1.79626 148.38 5.21118L19.9261 78.6031C13.8713 82.0622 8.83897 87.061 5.33953 93.0926C1.84009 99.1241 -0.00200731 105.974 6.67429e-05 112.947" fill="url(#paint0_linear_12_3929)"/>
<mask id="mask0_12_3929" style="mask-type:alpha" maskUnits="userSpaceOnUse" x="0" y="0" width="336" height="372">
<path d="M336 259.053L336 112.947C336.004 105.973 334.162 99.1215 330.663 93.0887C327.163 87.0559 322.13 82.0563 316.074 78.5971L187.62 5.21125C181.645 1.79633 174.882 7.60205e-05 168 7.72309e-05C161.118 7.84413e-05 154.355 1.79633 148.38 5.21126L19.9201 78.5972C13.8659 82.058 8.8346 87.0582 5.33626 93.0908C1.83791 99.1233 -0.00303503 105.974 8.84849e-05 112.947L0.000113882 259.053C-0.00133518 266.025 1.84037 272.874 5.3386 278.906C8.83683 284.937 13.8673 289.936 19.9201 293.397L148.38 366.789C154.355 370.204 161.118 372 168 372C174.882 372 181.645 370.204 187.62 366.789L316.074 293.397C322.129 289.938 327.161 284.939 330.661 278.907C334.16 272.876 336.002 266.026 336 259.053" fill="url(#paint1_linear_12_3929)"/>
</mask>
<g mask="url(#mask0_12_3929)">
<mask id="mask1_12_3929" style="mask-type:alpha" maskUnits="userSpaceOnUse" x="0" y="0" width="337" height="372">
<path d="M0.000241401 259.053L0.000309428 112.947C-0.00343448 105.973 1.83791 99.1215 5.33746 93.0887C8.83702 87.0559 13.8702 82.0563 19.9263 78.5971L148.38 5.21123C154.355 1.79631 161.118 5.8263e-05 168 5.87149e-05C174.882 5.91668e-05 181.645 1.79631 187.62 5.21124L316.08 78.5972C322.134 82.058 327.166 87.0582 330.664 93.0907C334.162 99.1233 336.003 105.974 336 112.947L336 259.053C336.002 266.025 334.16 272.874 330.662 278.905C327.163 284.937 322.133 289.936 316.08 293.397L187.62 366.789C181.645 370.204 174.882 372 168 372C161.118 372 154.355 370.204 148.38 366.789L19.9262 293.397C13.8714 289.938 8.83913 284.939 5.3397 278.907C1.84026 272.876 -0.0018359 266.026 0.000241401 259.053" fill="url(#paint2_linear_12_3929)"/>
</mask>
<g mask="url(#mask1_12_3929)">
<mask id="mask2_12_3929" style="mask-type:alpha" maskUnits="userSpaceOnUse" x="0" y="0" width="336" height="373">
<path d="M336 112.947L336 259.053C336.004 266.028 334.162 272.879 330.663 278.912C327.163 284.944 322.13 289.944 316.074 293.403L187.62 366.789C181.645 370.204 174.882 372 168 372C161.118 372 154.355 370.204 148.38 366.789L19.92 293.403C13.8659 289.943 8.83455 284.942 5.3362 278.91C1.83785 272.877 -0.0030935 266.027 2.83539e-05 259.053L1.88168e-05 112.948C-0.00143191 105.975 1.84027 99.1264 5.3385 93.0951C8.83673 87.0638 13.8672 82.0644 19.92 78.6036L148.38 5.21164C154.355 1.79671 161.118 0.000448115 168 0.000444891C174.882 0.000441668 181.645 1.7967 187.62 5.21162L316.074 78.6035C322.129 82.0626 327.161 87.0614 330.66 93.0929C334.16 99.1245 336.002 105.974 336 112.947" fill="url(#paint3_linear_12_3929)"/>
</mask>
<g mask="url(#mask2_12_3929)">
<mask id="mask3_12_3929" style="mask-type:alpha" maskUnits="userSpaceOnUse" x="0" y="0" width="336" height="373">
<path d="M4.69946e-05 112.947L2.14487e-05 259.053C-0.00372693 266.028 1.83761 272.879 5.33716 278.912C8.83672 284.944 13.8699 289.944 19.926 293.403L148.38 366.789C154.355 370.204 161.118 372 168 372C174.882 372 181.645 370.204 187.62 366.789L316.08 293.403C322.134 289.942 327.165 284.942 330.664 278.91C334.162 272.877 336.003 266.027 336 259.053L336 112.947C336.001 105.975 334.16 99.1263 330.661 93.095C327.163 87.0637 322.133 82.0643 316.08 78.6035L187.62 5.21158C181.645 1.79666 174.882 0.000396788 168 0.000395585C161.118 0.000394382 154.355 1.79666 148.38 5.21158L19.926 78.6035C13.8713 82.0626 8.83896 87.0614 5.33951 93.0929C1.84007 99.1245 -0.00202584 105.974 4.69946e-05 112.947" fill="url(#paint4_linear_12_3929)"/>
</mask>
<g mask="url(#mask3_12_3929)">
<mask id="mask4_12_3929" style="mask-type:alpha" maskUnits="userSpaceOnUse" x="0" y="0" width="336" height="373">
<path d="M4.69946e-05 112.947L2.14487e-05 259.053C-0.00372693 266.028 1.83761 272.879 5.33716 278.912C8.83672 284.944 13.8699 289.944 19.926 293.403L148.38 366.789C154.355 370.204 161.118 372 168 372C174.882 372 181.645 370.204 187.62 366.789L316.08 293.403C322.134 289.942 327.165 284.942 330.664 278.91C334.162 272.877 336.003 266.027 336 259.053L336 112.947C336.001 105.975 334.16 99.1263 330.661 93.095C327.163 87.0637 322.133 82.0643 316.08 78.6035L187.62 5.21158C181.645 1.79666 174.882 0.000396788 168 0.000395585C161.118 0.000394382 154.355 1.79666 148.38 5.21158L19.926 78.6035C13.8713 82.0626 8.83896 87.0614 5.33951 93.0929C1.84007 99.1245 -0.00202584 105.974 4.69946e-05 112.947" fill="url(#paint5_linear_12_3929)"/>
</mask>
<g mask="url(#mask4_12_3929)">
<path opacity="0.3" d="M4.69946e-05 112.947L2.14487e-05 259.053C-0.00372693 266.028 1.83761 272.879 5.33716 278.912C8.83672 284.944 13.8699 289.944 19.926 293.403L148.38 366.789C154.355 370.204 161.118 372 168 372C174.882 372 181.645 370.204 187.62 366.789L316.08 293.403C322.134 289.942 327.165 284.942 330.664 278.91C334.162 272.877 336.003 266.027 336 259.053L336 112.947C336.001 105.975 334.16 99.1263 330.661 93.095C327.163 87.0637 322.133 82.0643 316.08 78.6035L187.62 5.21158C181.645 1.79666 174.882 0.000396788 168 0.000395585C161.118 0.000394382 154.355 1.79666 148.38 5.21158L19.926 78.6035C13.8713 82.0626 8.83896 87.0614 5.33951 93.0929C1.84007 99.1245 -0.00202584 105.974 4.69946e-05 112.947Z" fill="#280055"/>
</g>
</g>
</g>
</g>
</g>
<path d="M45 132.389V239.611C44.9973 244.73 46.3454 249.758 48.9076 254.185C51.4697 258.612 55.1548 262.281 59.5887 264.82L153.635 318.676C158.01 321.182 162.961 322.5 168 322.5C173.039 322.5 177.99 321.182 182.365 318.676L276.416 264.82C280.848 262.28 284.532 258.611 287.093 254.183C289.654 249.756 291.002 244.729 291 239.611V132.389C291.001 127.272 289.653 122.246 287.091 117.819C284.53 113.393 280.847 109.724 276.416 107.185L182.365 53.3243C177.99 50.8182 173.039 49.5 168 49.5C162.961 49.5 158.01 50.8182 153.635 53.3243L59.5887 107.185C55.1557 109.723 51.4713 113.392 48.9093 117.818C46.3472 122.244 44.9985 127.271 45 132.389" fill="url(#paint6_linear_12_3929)"/>
<path d="M160.901 104.975L101.261 139.311C96.81 141.878 94.0505 146.665 94.0505 151.832V220.179C94.0505 225.336 96.81 230.133 101.261 232.701L160.901 267.036C163.06 268.281 165.519 268.931 168 268.931C170.493 268.931 172.941 268.27 175.099 267.036L234.74 232.701C239.19 230.133 241.95 225.347 241.95 220.179V151.832C241.95 146.676 239.19 141.878 234.74 139.311L175.099 104.975C172.941 103.731 170.481 103.081 168 103.081C165.508 103.081 163.06 103.731 160.901 104.975Z" fill="url(#paint7_linear_12_3929)"/>
<path d="M168 107.419C169.736 107.419 171.449 107.878 172.963 108.741L232.603 143.077C235.718 144.871 237.643 148.223 237.643 151.832V220.168C237.643 223.777 235.718 227.129 232.603 228.911L172.963 263.247C171.46 264.111 169.736 264.57 168 264.57C166.264 264.57 164.551 264.111 163.037 263.247L103.397 228.911C100.292 227.129 98.3563 223.777 98.3563 220.168V151.832C98.3563 148.223 100.292 144.871 103.397 143.077L163.037 108.741C164.539 107.878 166.264 107.419 168 107.419ZM168 99C164.862 99 161.713 99.8183 158.887 101.444L99.2465 135.768C93.5272 139.064 90 145.196 90 151.832V220.168C90 226.804 93.5272 232.936 99.2465 236.232L158.887 270.567C161.713 272.193 164.851 273 168 273C171.138 273 174.287 272.193 177.113 270.567L236.753 236.232C242.473 232.936 246 226.815 246 220.168V151.832C246 145.196 242.473 139.064 236.753 135.768L177.102 101.444C174.287 99.8183 171.138 99 168 99Z" fill="black"/>
<path d="M145.713 219.675H158.253V143.896H145.713V219.675ZM198.822 163.513H183.199L164.462 188.478V194.722L183.21 219.652H198.822L176.957 191.594L198.822 163.513Z" fill="black"/>
</g>
<defs>
<linearGradient id="paint0_linear_12_3929" x1="306.293" y1="19.0482" x2="68.3209" y2="291.783" gradientUnits="userSpaceOnUse">
<stop stop-color="#7218FF"/>
<stop offset="1" stop-color="#B07EFF"/>
</linearGradient>
<linearGradient id="paint1_linear_12_3929" x1="226.586" y1="27.5942" x2="53.2182" y2="312.554" gradientUnits="userSpaceOnUse">
<stop offset="0.0847715" stop-opacity="0"/>
<stop offset="0.299135"/>
</linearGradient>
<linearGradient id="paint2_linear_12_3929" x1="109.414" y1="27.5942" x2="282.782" y2="312.554" gradientUnits="userSpaceOnUse">
<stop offset="0.0904884" stop-opacity="0"/>
<stop offset="0.299135"/>
</linearGradient>
<linearGradient id="paint3_linear_12_3929" x1="323.499" y1="288.096" x2="138.656" y2="11.4683" gradientUnits="userSpaceOnUse">
<stop offset="0.00851842" stop-opacity="0"/>
<stop offset="0.173492"/>
</linearGradient>
<linearGradient id="paint4_linear_12_3929" x1="12.5012" y1="288.096" x2="197.344" y2="11.4682" gradientUnits="userSpaceOnUse">
<stop offset="0.00851842" stop-opacity="0"/>
<stop offset="0.173492"/>
</linearGradient>
<linearGradient id="paint5_linear_12_3929" x1="4.44255e-05" y1="189.132" x2="336" y2="189.132" gradientUnits="userSpaceOnUse">
<stop offset="0.0372058" stop-opacity="0"/>
<stop offset="0.107364" stop-opacity="0.3"/>
<stop offset="0.179472"/>
<stop offset="0.822593"/>
<stop offset="0.891777" stop-opacity="0.3"/>
<stop offset="0.961935" stop-opacity="0"/>
</linearGradient>
<linearGradient id="paint6_linear_12_3929" x1="269.25" y1="63.4789" x2="94.5541" y2="263.223" gradientUnits="userSpaceOnUse">
<stop stop-color="#7218FF"/>
<stop offset="1" stop-color="#B07EFF"/>
</linearGradient>
<linearGradient id="paint7_linear_12_3929" x1="141.25" y1="260.037" x2="195.453" y2="112.219" gradientUnits="userSpaceOnUse">
<stop stop-color="#23D1AE"/>
<stop offset="1" stop-color="#7EFF33"/>
</linearGradient>
<clipPath id="clip0_12_3929">
<rect width="336" height="372" fill="white"/>
</clipPath>
</defs>
</svg>
