<svg width="336" height="372" viewBox="0 0 336 372" fill="none" xmlns="http://www.w3.org/2000/svg">
<g clip-path="url(#clip0_12_3823)">
<path d="M5.70773e-06 112.947V259.052C-0.00374145 266.026 1.83759 272.878 5.33715 278.91C8.8367 284.943 13.8699 289.943 19.926 293.402L148.38 366.788C154.355 370.202 161.118 371.999 168 371.999C174.882 371.999 181.645 370.202 187.62 366.788L316.08 293.402C322.134 289.941 327.165 284.941 330.663 278.908C334.162 272.876 336.003 266.026 336 259.052V112.947C336.001 105.974 334.159 99.1255 330.661 93.0942C327.163 87.063 322.132 82.0636 316.08 78.6028L187.62 5.21117C181.645 1.79626 174.882 0 168 0C161.118 0 154.355 1.79626 148.38 5.21117L19.926 78.6028C13.8712 82.0619 8.8389 87.0607 5.33946 93.0923C1.84003 99.1238 -0.00206835 105.974 5.70773e-06 112.947" fill="url(#paint0_linear_12_3823)"/>
<mask id="mask0_12_3823" style="mask-type:alpha" maskUnits="userSpaceOnUse" x="0" y="0" width="336" height="372">
<path d="M336 259.053L336 112.948C336.004 105.973 334.162 99.1221 330.663 93.0893C327.163 87.0565 322.13 82.0568 316.074 78.5977L187.62 5.21208C181.645 1.79717 174.882 0.000921931 168 0.000923141C161.118 0.000924351 154.355 1.79717 148.38 5.21209L19.9204 78.5978C13.8662 82.0586 8.83492 87.0588 5.33657 93.0913C1.83823 99.1238 -0.0027146 105.974 0.00040892 112.948L0.000434316 259.053C-0.00101474 266.025 1.84069 272.874 5.33892 278.905C8.83715 284.937 13.8676 289.936 19.9204 293.397L148.38 366.788C154.355 370.203 161.118 372 168 372C174.882 372 181.645 370.203 187.62 366.788L316.074 293.397C322.129 289.938 327.161 284.939 330.661 278.907C334.16 272.876 336.002 266.026 336 259.053" fill="url(#paint1_linear_12_3823)"/>
</mask>
<g mask="url(#mask0_12_3823)">
<mask id="mask1_12_3823" style="mask-type:alpha" maskUnits="userSpaceOnUse" x="0" y="0" width="336" height="372">
<path d="M0.000195373 259.053L0.00020386 112.947C-0.00354289 105.973 1.83779 99.1219 5.33735 93.0891C8.8369 87.0563 13.8701 82.0567 19.9262 78.5976L148.38 5.21195C154.355 1.79704 161.118 0.000795291 168 0.000798913C174.882 0.000802536 181.645 1.79705 187.62 5.21197L316.08 78.5977C322.134 82.0585 327.165 87.0587 330.664 93.0913C334.162 99.1238 336.003 105.974 336 112.948L336 259.053C336.001 266.025 334.159 272.874 330.661 278.905C327.163 284.937 322.133 289.936 316.08 293.397L187.62 366.788C181.645 370.203 174.882 372 168 372C161.118 372 154.355 370.203 148.38 366.788L19.9262 293.397C13.8714 289.938 8.83909 284.939 5.33965 278.907C1.84022 272.876 -0.00187909 266.026 0.000195373 259.053" fill="url(#paint2_linear_12_3823)"/>
</mask>
<g mask="url(#mask1_12_3823)">
<mask id="mask2_12_3823" style="mask-type:alpha" maskUnits="userSpaceOnUse" x="0" y="0" width="337" height="372">
<path d="M336 112.947L336 259.053C336.004 266.027 334.163 272.878 330.663 278.911C327.163 284.944 322.13 289.943 316.074 293.402L187.62 366.788C181.645 370.203 174.883 371.999 168 371.999C161.118 371.999 154.356 370.203 148.38 366.788L19.9206 293.402C13.8665 289.942 8.83514 284.941 5.3368 278.909C1.83845 272.876 -0.00249864 266.026 0.000620018 259.053L0.000543567 112.947C-0.000910352 105.975 1.84079 99.1261 5.33901 93.0948C8.83724 87.0635 13.8677 82.0642 19.9205 78.6034L148.38 5.21173C154.355 1.79682 161.118 0.000559534 168 0.000559132C174.882 0.00055873 181.645 1.79682 187.62 5.21173L316.074 78.6034C322.129 82.0625 327.161 87.0613 330.661 93.0928C334.16 99.1243 336.002 105.974 336 112.947" fill="url(#paint3_linear_12_3823)"/>
</mask>
<g mask="url(#mask2_12_3823)">
<mask id="mask3_12_3823" style="mask-type:alpha" maskUnits="userSpaceOnUse" x="0" y="0" width="336" height="372">
<path d="M0.000413206 112.947L0.00038766 259.052C-0.00336071 266.027 1.83797 272.878 5.33752 278.911C8.83708 284.943 13.8703 289.943 19.9264 293.402L148.38 366.788C154.355 370.203 161.118 371.999 168 371.999C174.882 371.999 181.645 370.203 187.62 366.788L316.08 293.402C322.134 289.941 327.165 284.941 330.664 278.909C334.162 272.876 336.003 266.026 336 259.052L336 112.947C336.001 105.975 334.16 99.1257 330.661 93.0945C327.163 87.0632 322.133 82.0639 316.08 78.6031L187.62 5.21138C181.645 1.79647 174.882 0.000213683 168 0.000212479C161.118 0.000211276 154.355 1.79647 148.38 5.21138L19.9264 78.603C13.8716 82.0621 8.83931 87.0609 5.33988 93.0924C1.84044 99.124 -0.00165963 105.974 0.000413206 112.947" fill="url(#paint4_linear_12_3823)"/>
</mask>
<g mask="url(#mask3_12_3823)">
<mask id="mask4_12_3823" style="mask-type:alpha" maskUnits="userSpaceOnUse" x="0" y="0" width="336" height="372">
<path d="M0.000535276 112.947L0.00050973 259.052C-0.00323864 266.027 1.8381 272.878 5.33765 278.911C8.8372 284.943 13.8704 289.943 19.9265 293.402L148.38 366.788C154.355 370.203 161.118 371.999 168 371.999C174.882 371.999 181.645 370.203 187.62 366.788L316.08 293.402C322.134 289.941 327.166 284.941 330.664 278.909C334.162 272.876 336.003 266.026 336 259.052L336 112.947C336.002 105.975 334.16 99.1257 330.662 93.0945C327.163 87.0632 322.133 82.0639 316.08 78.6031L187.62 5.21138C181.645 1.79647 174.882 0.000213683 168 0.000212479C161.118 0.000211276 154.355 1.79647 148.38 5.21138L19.9265 78.603C13.8717 82.0621 8.83944 87.0609 5.34 93.0924C1.84056 99.124 -0.00153756 105.974 0.000535276 112.947" fill="url(#paint5_linear_12_3823)"/>
</mask>
<g mask="url(#mask4_12_3823)">
<path opacity="0.35" d="M0.000535276 112.947L0.00050973 259.052C-0.00323864 266.027 1.83809 272.878 5.33765 278.911C8.8372 284.943 13.8704 289.943 19.9265 293.402L148.38 366.788C154.355 370.203 161.118 371.999 168 371.999C174.882 371.999 181.645 370.203 187.62 366.788L316.08 293.402C322.134 289.941 327.166 284.941 330.664 278.909C334.162 272.876 336.003 266.026 336 259.052L336 112.947C336.002 105.975 334.16 99.1258 330.662 93.0945C327.163 87.0632 322.133 82.0639 316.08 78.6031L187.62 5.21138C181.645 1.79647 174.882 0.000213683 168 0.000212479C161.118 0.000211276 154.355 1.79647 148.38 5.21138L19.9265 78.603C13.8717 82.0621 8.83943 87.0609 5.34 93.0924C1.84056 99.124 -0.00153756 105.974 0.000535276 112.947Z" fill="black"/>
</g>
</g>
</g>
</g>
</g>
<path d="M45.0002 132.389V239.611C44.9974 244.73 46.3456 249.757 48.9077 254.185C51.4699 258.612 55.1549 262.281 59.5889 264.82L153.635 318.675C158.01 321.182 162.961 322.5 168 322.5C173.039 322.5 177.99 321.182 182.365 318.675L276.416 264.82C280.848 262.28 284.532 258.61 287.093 254.183C289.654 249.756 291.002 244.729 291 239.611V132.389C291.001 127.272 289.653 122.246 287.091 117.819C284.53 113.393 280.847 109.724 276.416 107.184L182.365 53.3243C177.99 50.8182 173.039 49.5 168 49.5C162.961 49.5 158.01 50.8182 153.635 53.3243L59.5889 107.184C55.1559 109.723 51.4715 113.392 48.9094 117.818C46.3473 122.244 44.9987 127.271 45.0002 132.389" fill="url(#paint6_linear_12_3823)"/>
<path d="M160.901 104.975L101.261 139.311C96.81 141.878 94.0505 146.664 94.0505 151.832V220.179C94.0505 225.336 96.81 230.134 101.261 232.701L160.901 267.037C163.06 268.281 165.519 268.932 168 268.932C170.493 268.932 172.94 268.27 175.099 267.037L234.739 232.701C239.19 230.134 241.95 225.347 241.95 220.179V151.832C241.95 146.676 239.19 141.878 234.739 139.311L175.099 104.975C172.94 103.73 170.481 103.08 168 103.08C165.508 103.08 163.06 103.73 160.901 104.975Z" fill="url(#paint7_linear_12_3823)"/>
<path d="M168 107.418C169.736 107.418 171.449 107.878 172.962 108.741L232.603 143.077C235.718 144.871 237.643 148.223 237.643 151.832V220.168C237.643 223.778 235.718 227.13 232.603 228.912L172.962 263.248C171.46 264.111 169.736 264.571 168 264.571C166.264 264.571 164.55 264.111 163.037 263.248L103.397 228.912C100.292 227.13 98.3563 223.778 98.3563 220.168V151.832C98.3563 148.223 100.292 144.871 103.397 143.077L163.037 108.741C164.539 107.878 166.264 107.418 168 107.418ZM168 98.9998C164.862 98.9998 161.713 99.8181 158.887 101.444L99.2465 135.768C93.5272 139.064 90 145.196 90 151.832V220.168C90 226.805 93.5272 232.936 99.2465 236.232L158.887 270.568C161.713 272.194 164.851 273.001 168 273.001C171.138 273.001 174.287 272.194 177.113 270.568L236.753 236.232C242.472 232.936 246 226.816 246 220.168V151.832C246 145.196 242.472 139.064 236.753 135.768L177.102 101.444C174.287 99.8181 171.138 98.9998 168 98.9998Z" fill="black"/>
<path d="M145.713 219.674H158.253V143.895H145.713V219.674ZM198.821 163.513H183.199L164.461 188.477V194.721L183.21 219.652H198.821L176.957 191.593L198.821 163.513Z" fill="black"/>
</g>
<defs>
<linearGradient id="paint0_linear_12_3823" x1="1.95359e-05" y1="371.999" x2="246.317" y2="-52.0889" gradientUnits="userSpaceOnUse">
<stop stop-color="#602AD2"/>
<stop offset="1" stop-color="#1D1355"/>
</linearGradient>
<linearGradient id="paint1_linear_12_3823" x1="226.587" y1="27.5949" x2="53.219" y2="312.554" gradientUnits="userSpaceOnUse">
<stop offset="0.0847715" stop-opacity="0"/>
<stop offset="0.299135"/>
</linearGradient>
<linearGradient id="paint2_linear_12_3823" x1="109.414" y1="27.5948" x2="282.781" y2="312.554" gradientUnits="userSpaceOnUse">
<stop offset="0.0904884" stop-opacity="0"/>
<stop offset="0.299135"/>
</linearGradient>
<linearGradient id="paint3_linear_12_3823" x1="323.499" y1="288.095" x2="138.657" y2="11.4679" gradientUnits="userSpaceOnUse">
<stop offset="0.00851842" stop-opacity="0"/>
<stop offset="0.173492"/>
</linearGradient>
<linearGradient id="paint4_linear_12_3823" x1="12.5016" y1="288.095" x2="197.344" y2="11.4676" gradientUnits="userSpaceOnUse">
<stop offset="0.00851842" stop-opacity="0"/>
<stop offset="0.173492"/>
</linearGradient>
<linearGradient id="paint5_linear_12_3823" x1="0.000532707" y1="189.131" x2="336" y2="189.131" gradientUnits="userSpaceOnUse">
<stop offset="0.0372058" stop-opacity="0"/>
<stop offset="0.107364" stop-opacity="0.3"/>
<stop offset="0.179472"/>
<stop offset="0.822593"/>
<stop offset="0.891777" stop-opacity="0.3"/>
<stop offset="0.961935" stop-opacity="0"/>
</linearGradient>
<linearGradient id="paint6_linear_12_3823" x1="45.0002" y1="322.5" x2="225.977" y2="11.6443" gradientUnits="userSpaceOnUse">
<stop stop-color="#602AD2"/>
<stop offset="1" stop-color="#1D1355"/>
</linearGradient>
<linearGradient id="paint7_linear_12_3823" x1="141.25" y1="260.038" x2="195.453" y2="112.219" gradientUnits="userSpaceOnUse">
<stop stop-color="#23D1AE"/>
<stop offset="1" stop-color="#7EFF33"/>
</linearGradient>
<clipPath id="clip0_12_3823">
<rect width="336" height="372" fill="white"/>
</clipPath>
</defs>
</svg>
